<svg width="192" height="32" viewBox="0 0 192 32" fill="none" xmlns="http://www.w3.org/2000/svg">
<rect width="32" height="32" rx="6" fill="#409332"/>
<path d="M16.4956 24.3869L7.53676 29L9.24781 19.2326L2 12.3172L12.0206 10.8912L16.4956 2L20.9794 10.8912L31 12.3172L23.7522 19.2326L25.4632 29L16.4956 24.3869Z" fill="white"/>
<rect x="40" width="32" height="32" rx="6" fill="#409332"/>
<path d="M56.4956 24.3869L47.5368 29L49.2478 19.2326L42 12.3172L52.0206 10.8912L56.4956 2L60.9794 10.8912L71 12.3172L63.7522 19.2326L65.4632 29L56.4956 24.3869Z" fill="white"/>
<rect x="80" width="32" height="32" rx="6" fill="#409332"/>
<path d="M96.4956 24.3869L87.5368 29L89.2478 19.2326L82 12.3172L92.0206 10.8912L96.4956 2L100.979 10.8912L111 12.3172L103.752 19.2326L105.463 29L96.4956 24.3869Z" fill="white"/>
<rect x="120" width="32" height="32" rx="6" fill="#409332"/>
<path d="M136.496 24.3869L127.537 29L129.248 19.2326L122 12.3172L132.021 10.8912L136.496 2L140.979 10.8912L151 12.3172L143.752 19.2326L145.463 29L136.496 24.3869Z" fill="white"/>
<rect x="160" y="3.05176e-05" width="32" height="32" rx="6" fill="#AAAAAA"/>
<path d="M160 6C160 2.68629 162.686 0 166 0C166 0 174.746 0 186 0C186 3.99976 186 22.9998 186 32C176.558 32 166 32 166 32C162.686 32 160 29.3137 160 26V6Z" fill="#409332"/>
<path d="M176.496 24.3869L167.537 29L169.248 19.2326L162 12.3172L172.021 10.8912L176.496 2.00003L180.979 10.8912L191 12.3172L183.752 19.2326L185.463 29L176.496 24.3869Z" fill="white"/>
</svg>
